<?xml version="1.0" encoding="UTF-8" standalone="no"?><!DOCTYPE svg PUBLIC "-//W3C//DTD SVG 1.1//EN" "http://www.w3.org/Graphics/SVG/1.1/DTD/svg11.dtd"><svg width="100%" height="100%" viewBox="0 0 2481 2481" version="1.1" xmlns="http://www.w3.org/2000/svg" xmlns:xlink="http://www.w3.org/1999/xlink" xml:space="preserve" xmlns:serif="http://www.serif.com/" style="fill-rule:evenodd;clip-rule:evenodd;stroke-linejoin:round;stroke-miterlimit:2;"><g><g id="C"><path d="M1736.78,1404.81c297.062,-0 538.239,241.177 538.239,538.239c-0,297.062 -241.177,538.239 -538.239,538.239c-297.062,-0 -538.239,-241.177 -538.239,-538.239c-0,-297.062 241.177,-538.239 538.239,-538.239Zm149.833,660.836c-35.522,43.35 -89.47,71.031 -149.833,71.031c-106.867,0 -193.628,-86.762 -193.628,-193.628c-0,-106.867 86.761,-193.628 193.628,-193.628c60.363,-0 114.311,27.681 149.814,71.046c11.554,14.135 31.651,17.812 47.462,8.684c1.684,-0.972 3.386,-1.954 5.075,-2.957c9.43,-5.445 16.004,-14.746 17.988,-25.452c1.985,-10.707 -0.818,-21.746 -7.67,-30.209c-50.234,-61.833 -126.871,-101.37 -212.669,-101.37c-151.162,0 -273.886,122.724 -273.886,273.886c0,151.161 122.724,273.885 273.886,273.885c85.798,0 162.435,-39.537 212.688,-101.354c6.857,-8.469 9.661,-19.515 7.675,-30.228c-1.986,-10.714 -8.564,-20.021 -18,-25.469c-1.701,-0.982 -3.403,-1.964 -5.1,-2.915c-15.8,-9.122 -35.883,-5.448 -47.43,8.678Z"/></g></g></svg>