<?xml version="1.0" encoding="UTF-8" standalone="no"?><!DOCTYPE svg PUBLIC "-//W3C//DTD SVG 1.1//EN" "http://www.w3.org/Graphics/SVG/1.1/DTD/svg11.dtd"><svg width="100%" height="100%" viewBox="0 0 2481 2481" version="1.1" xmlns="http://www.w3.org/2000/svg" xmlns:xlink="http://www.w3.org/1999/xlink" xml:space="preserve" xmlns:serif="http://www.serif.com/" style="fill-rule:evenodd;clip-rule:evenodd;stroke-linejoin:round;stroke-miterlimit:2;"><g><g id="A-full"><path d="M1240.02,1998.29c-124.86,-0 -249.136,-13.234 -370.773,-39.338l-183.68,521.361l-435.016,-0l358.602,-1017.86c0.035,0.018 0.07,0.036 0.105,0.054l0.042,-0.12c194.899,99.896 411.055,152.244 630.72,152.288l0.275,-0c219.665,-0.044 435.821,-52.392 630.72,-152.288l0.042,0.12c0.035,-0.018 0.07,-0.036 0.105,-0.054l358.602,1017.86l-435.016,-0l-183.68,-521.361c-121.637,26.104 -245.913,39.338 -370.773,39.338l-0.275,-0Zm-0,-601.415c-195.007,0 -386.739,-48.924 -557.706,-142.084l403.638,-1145.69c23.644,-67.11 86.778,-109.106 154.144,-109.1c0.041,-0 0.082,-0 0.123,0c67.366,-0.006 130.5,41.99 154.144,109.1l403.638,1145.69c-170.967,93.16 -362.699,142.084 -557.706,142.084l-0.275,0Z" style="fill:#808080;"/></g></g></svg>