<?xml version="1.0" encoding="UTF-8" standalone="no"?><!DOCTYPE svg PUBLIC "-//W3C//DTD SVG 1.1//EN" "http://www.w3.org/Graphics/SVG/1.1/DTD/svg11.dtd"><svg width="100%" height="100%" viewBox="0 0 2481 2481" version="1.1" xmlns="http://www.w3.org/2000/svg" xmlns:xlink="http://www.w3.org/1999/xlink" xml:space="preserve" xmlns:serif="http://www.serif.com/" style="fill-rule:evenodd;clip-rule:evenodd;stroke-linejoin:round;stroke-miterlimit:2;"><g><path d="M1126.24,139l0,1463.18c0,28.155 16.96,53.537 42.972,64.311c26.011,10.774 55.951,4.819 75.859,-15.089l365.254,-365.255l371.623,371.623c19.908,19.908 49.848,25.863 75.86,15.089c26.011,-10.774 42.971,-36.156 42.971,-64.31l-0,-1469.55l240.541,-0l-0,1825.27c-0,100 -39.725,195.904 -110.435,266.615c-70.711,70.71 -166.615,110.435 -266.615,110.435l-1448.21,-0c-100,-0 -195.904,-39.725 -266.615,-110.435c-70.71,-70.711 -110.435,-166.615 -110.435,-266.615l-0,-1448.69c-0,-99.873 39.674,-195.656 110.295,-266.277c70.621,-70.621 166.404,-110.295 266.277,-110.295l610.663,-0Z" style="fill:#808080;"/></g></svg>