<?xml version="1.0" encoding="UTF-8" standalone="no"?><!DOCTYPE svg PUBLIC "-//W3C//DTD SVG 1.1//EN" "http://www.w3.org/Graphics/SVG/1.1/DTD/svg11.dtd"><svg width="100%" height="100%" viewBox="0 0 2481 9922" version="1.1" xmlns="http://www.w3.org/2000/svg" xmlns:xlink="http://www.w3.org/1999/xlink" xml:space="preserve" xmlns:serif="http://www.serif.com/" style="fill-rule:evenodd;clip-rule:evenodd;stroke-linejoin:round;stroke-miterlimit:2;"><g id="A-full"></g><path d="M2480.32,6812.97l-449.394,1275.57l-0.131,-0.067l-0.053,0.15c-244.244,-125.188 -515.127,-190.79 -790.407,-190.845l-0.345,0c-275.28,0.055 -546.163,65.657 -790.407,190.845l-0.053,-0.15l-0.131,0.067l-449.394,-1275.57l0,-6812.97l545.154,-0l0,6812.97l230.185,653.36c152.433,-32.714 308.174,-49.297 464.646,-49.297l0.345,-0c156.472,-0 312.213,16.583 464.646,49.297l230.185,-653.36l-0,-6812.97l545.154,-0l-0,6812.97Zm-1239.99,1357.75c244.379,-0 484.654,61.31 698.907,178.058l-505.832,1435.76c-29.63,84.101 -108.749,136.73 -193.17,136.723c-0.052,-0 -0.103,-0 -0.155,-0c-84.421,0.007 -163.54,-52.622 -193.17,-136.723l-505.832,-1435.76c214.253,-116.748 454.528,-178.058 698.907,-178.058l0.345,-0Z"/></svg>