<?xml version="1.0" encoding="UTF-8" standalone="no"?><!DOCTYPE svg PUBLIC "-//W3C//DTD SVG 1.1//EN" "http://www.w3.org/Graphics/SVG/1.1/DTD/svg11.dtd"><svg width="100%" height="100%" viewBox="0 0 2481 2481" version="1.1" xmlns="http://www.w3.org/2000/svg" xmlns:xlink="http://www.w3.org/1999/xlink" xml:space="preserve" xmlns:serif="http://www.serif.com/" style="fill-rule:evenodd;clip-rule:evenodd;stroke-linejoin:round;stroke-miterlimit:2;"><ellipse cx="97.053" cy="2379.86" rx="97.053" ry="100.459"/><g id="C"><path d="M801.813,510.669c388.968,-0 704.761,326.873 704.761,729.488c-0,402.616 -315.793,729.489 -704.761,729.489c-388.967,0 -704.76,-326.873 -704.76,-729.489c0,-402.615 315.793,-729.488 704.76,-729.488Zm196.189,895.647c-46.512,58.754 -117.151,96.271 -196.189,96.271c-139.928,-0 -253.533,-117.591 -253.533,-262.43c0,-144.838 113.605,-262.429 253.533,-262.429c79.038,0 149.678,37.517 196.165,96.291c15.129,19.158 41.443,24.142 62.145,11.771c2.206,-1.319 4.433,-2.65 6.645,-4.009c12.348,-7.379 20.955,-19.985 23.554,-34.496c2.599,-14.511 -1.071,-29.472 -10.043,-40.942c-65.776,-83.804 -166.123,-137.389 -278.466,-137.389c-197.928,-0 -358.62,166.331 -358.62,371.203c-0,204.873 160.692,371.204 358.62,371.204c112.343,0 212.69,-53.585 278.491,-137.368c8.978,-11.477 12.65,-26.448 10.049,-40.969c-2.6,-14.52 -11.213,-27.134 -23.569,-34.518c-2.228,-1.331 -4.455,-2.662 -6.677,-3.951c-20.689,-12.364 -46.986,-7.384 -62.105,11.761Z"/></g><path d="M678.868,2019.42l-367.172,185.435c-31.147,15.731 -68.259,13.985 -97.792,-4.598c-29.533,-18.584 -47.165,-51.287 -46.461,-86.174l8.532,-422.774c115.611,171.422 295.248,293.22 502.893,328.111Z"/></svg>