<?xml version="1.0" encoding="UTF-8" standalone="no"?><!DOCTYPE svg PUBLIC "-//W3C//DTD SVG 1.1//EN" "http://www.w3.org/Graphics/SVG/1.1/DTD/svg11.dtd"><svg width="100%" height="100%" viewBox="0 0 2481 2481" version="1.1" xmlns="http://www.w3.org/2000/svg" xmlns:xlink="http://www.w3.org/1999/xlink" xml:space="preserve" xmlns:serif="http://www.serif.com/" style="fill-rule:evenodd;clip-rule:evenodd;stroke-linejoin:round;stroke-miterlimit:2;"><g><path d="M2341.32,1431.8l-0,508.218c-0,118.354 -95.945,214.299 -214.299,214.299l-1773.72,-0c-118.354,-0 -214.299,-95.945 -214.299,-214.299l-0,-508.218l2202.32,0Z" style="fill:#808080;"/><path d="M446.655,361.753l-0,926.686l-205.155,-0l-0,-646.013c-0,-83.921 40.157,-164.405 111.638,-223.747c27.75,-23.037 59.338,-42.156 93.517,-56.926Zm126.845,926.686l-0,-959.798c16.212,-1.75 32.628,-2.641 49.155,-2.641l94,-0l-0,962.439l-143.155,-0Zm270,-0l0,-962.439l143.155,-0l-0,962.439l-143.155,-0Zm274.157,-0l0,-749.215c0,-117.761 95.464,-213.224 213.224,-213.224l907.934,-0l-0,962.439l-1121.16,-0Z" style="fill:#808080;"/></g></svg>