<?xml version="1.0" encoding="UTF-8" standalone="no"?><!DOCTYPE svg PUBLIC "-//W3C//DTD SVG 1.1//EN" "http://www.w3.org/Graphics/SVG/1.1/DTD/svg11.dtd"><svg width="100%" height="100%" viewBox="0 0 2481 2481" version="1.1" xmlns="http://www.w3.org/2000/svg" xmlns:xlink="http://www.w3.org/1999/xlink" xml:space="preserve" xmlns:serif="http://www.serif.com/" style="fill-rule:evenodd;clip-rule:evenodd;stroke-linejoin:round;stroke-miterlimit:2;"><path d="M205.702,2094.15l302.77,-859.388c164.596,84.343 347.142,128.522 532.646,128.522c185.544,0 368.13,-44.199 532.754,-128.578l33.636,95.474c-195.853,41.159 -358.105,174.063 -439.64,351.6c-42.096,3.59 -84.383,5.394 -126.75,5.394c-105.42,0 -210.348,-11.173 -313.046,-33.213l-155.083,440.189l-367.287,0Zm364.541,-1034.72l340.795,-967.317c19.962,-56.661 73.267,-92.119 130.144,-92.114c56.877,-0.005 110.182,35.453 130.144,92.114l340.774,967.259c-144.375,78.694 -306.296,120.021 -470.982,120.021c-164.646,0 -326.527,-41.306 -470.875,-119.963Zm1166.34,344.827c296.946,-0 538.028,241.082 538.028,538.028c0,296.946 -241.082,538.029 -538.028,538.029c-296.946,-0 -538.029,-241.083 -538.029,-538.029c0,-296.946 241.083,-538.028 538.029,-538.028Zm149.774,660.578c-35.508,43.333 -89.435,71.003 -149.774,71.003c-106.825,0 -193.553,-86.728 -193.553,-193.553c0,-106.824 86.728,-193.552 193.553,-193.552c60.339,-0 114.266,27.67 149.755,71.018c11.55,14.13 31.639,17.806 47.444,8.682c1.684,-0.973 3.384,-1.954 5.073,-2.957c9.426,-5.442 15.997,-14.74 17.981,-25.442c1.984,-10.703 -0.818,-21.737 -7.667,-30.197c-50.215,-61.809 -126.822,-101.33 -212.586,-101.33c-151.103,0 -273.779,122.676 -273.779,273.778c0,151.103 122.676,273.779 273.779,273.779c85.764,-0 162.371,-39.522 212.605,-101.315c6.854,-8.465 9.657,-19.507 7.672,-30.216c-1.985,-10.71 -8.56,-20.013 -17.993,-25.459c-1.701,-0.982 -3.401,-1.963 -5.098,-2.914c-15.794,-9.119 -35.87,-5.446 -47.412,8.675Z"/></svg>